<svg xmlns="http://www.w3.org/2000/svg" viewBox="0 0 1200 330" width="1200" height="330" role="img" aria-labelledby="title desc" font-family="Georgia, 'Times New Roman', serif">
<title id="title">02 · Migrar um projeto existente</title><desc id="desc">Salvar trabalho / e abrir branch → Auditar código / e harness atual → Rodar setup / --trial → Personalizer / modo existing → Revisar diff e / validar entrega</desc>
<defs><marker id="arrow" viewBox="0 0 10 10" refX="9" refY="5" markerWidth="8" markerHeight="8" orient="auto-start-reverse"><path d="M 0 0 L 10 5 L 0 10 Z" fill="#F3E7C6"/></marker></defs>
<rect width="1200" height="330" fill="#17130f"/>
<rect x="12" y="12" width="1176" height="306" rx="10" fill="none" stroke="#725a35" stroke-width="2"/>
<path d="M 35 53 L 44 38 L 53 53 L 44 68 Z" fill="#5B2E8A" stroke="#F3E7C6"/>

<text x="68" y="57" text-anchor="start" font-size="29" fill="#F3E7C6">
<tspan x="68" dy="0">02 · Migrar um projeto existente</tspan>
</text>
<text x="36" y="93" text-anchor="start" font-size="17" fill="#d6c8a8">
<tspan x="36" dy="0">Operador e agente · preservar código, configurações e design</tspan>
</text>
<path d="M79 181 H118" fill="none" stroke="#F3E7C6" stroke-width="2.5" stroke-linejoin="round" marker-end="url(#arrow)"/>
<path d="M284 181 H318" fill="none" stroke="#F3E7C6" stroke-width="2.5" stroke-linejoin="round" marker-end="url(#arrow)"/>
<path d="M484 181 H518" fill="none" stroke="#F3E7C6" stroke-width="2.5" stroke-linejoin="round" marker-end="url(#arrow)"/>
<path d="M684 181 H718" fill="none" stroke="#F3E7C6" stroke-width="2.5" stroke-linejoin="round" marker-end="url(#arrow)"/>
<path d="M884 181 H918" fill="none" stroke="#F3E7C6" stroke-width="2.5" stroke-linejoin="round" marker-end="url(#arrow)"/>
<path d="M1084 181 H1119" fill="none" stroke="#F3E7C6" stroke-width="2.5" stroke-linejoin="round" marker-end="url(#arrow)"/>
<circle cx="56" cy="181" r="23" fill="#1F7A4D" stroke="#F3E7C6" stroke-width="2"/>
<text x="56" y="234" text-anchor="middle" font-size="17" fill="#F3E7C6">
<tspan x="56" dy="0">Repo</tspan>
</text>
<rect x="118" y="137" width="166" height="88" rx="9" fill="#F3E7C6" stroke="#1F4FA3" stroke-width="5"/>
<text x="201.0" y="175.0" text-anchor="middle" font-size="18" fill="#17130f" data-max-width="144">
<tspan x="201.0" dy="0">Salvar trabalho</tspan>
<tspan x="201.0" dy="24">e abrir branch</tspan>
</text>
<rect x="318" y="137" width="166" height="88" rx="9" fill="#F3E7C6" stroke="#E8A317" stroke-width="5"/>
<text x="401.0" y="175.0" text-anchor="middle" font-size="18" fill="#17130f" data-max-width="144">
<tspan x="401.0" dy="0">Auditar código</tspan>
<tspan x="401.0" dy="24">e harness atual</tspan>
</text>
<rect x="518" y="137" width="166" height="88" rx="9" fill="#F3E7C6" stroke="#5B2E8A" stroke-width="5"/>
<text x="601.0" y="175.0" text-anchor="middle" font-size="18" fill="#17130f" data-max-width="144">
<tspan x="601.0" dy="0">Rodar setup</tspan>
<tspan x="601.0" dy="24">--trial</tspan>
</text>
<rect x="718" y="137" width="166" height="88" rx="9" fill="#F3E7C6" stroke="#1F4FA3" stroke-width="5"/>
<text x="801.0" y="175.0" text-anchor="middle" font-size="18" fill="#17130f" data-max-width="144">
<tspan x="801.0" dy="0">Personalizer</tspan>
<tspan x="801.0" dy="24">modo existing</tspan>
</text>
<rect x="918" y="137" width="166" height="88" rx="9" fill="#F3E7C6" stroke="#1F7A4D" stroke-width="5"/>
<text x="1001.0" y="175.0" text-anchor="middle" font-size="18" fill="#17130f" data-max-width="144">
<tspan x="1001.0" dy="0">Revisar diff e</tspan>
<tspan x="1001.0" dy="24">validar entrega</tspan>
</text>
<circle cx="1142" cy="181" r="23" fill="#1F7A4D" stroke="#F3E7C6" stroke-width="5"/>
<circle cx="1142" cy="181" r="17" fill="none" stroke="#F3E7C6"/>
<text x="1142" y="234" text-anchor="middle" font-size="17" fill="#F3E7C6">
<tspan x="1142" dy="0">Adotado</tspan>
</text>
<text x="36" y="289" text-anchor="start" font-size="18" fill="#F3E7C6">
<tspan x="36" dy="0">Saída: auditoria, plano de adoção, guias adaptados e evidências no vault.</tspan>
</text>
</svg>
